<?xml version="1.0" encoding="iso-8859-1"?>
<!-- Generator: Adobe Illustrator 16.0.0, SVG Export Plug-In . SVG Version: 6.00 Build 0)  -->
<!DOCTYPE svg PUBLIC "-//W3C//DTD SVG 1.1//EN" "http://www.w3.org/Graphics/SVG/1.1/DTD/svg11.dtd">
<svg xmlns="http://www.w3.org/2000/svg" xmlns:xlink="http://www.w3.org/1999/xlink" version="1.1" id="Capa_1" x="0px" y="0px" width="24px" height="24px" viewBox="0 0 34.482 34.482" style="enable-background:new 0 0 34.482 34.482;" xml:space="preserve">
<g>
	<path d="M30.969,8.667h-1.252c0-4.089-3.327-7.415-7.416-7.415V0C27.08,0,30.969,3.888,30.969,8.667z M22.301,2.164v1.252   c2.896,0,5.252,2.356,5.252,5.251h1.252C28.805,5.081,25.887,2.164,22.301,2.164z M22.301,4.397v1.252   c1.665,0,3.02,1.354,3.02,3.018h1.252C26.572,6.313,24.656,4.397,22.301,4.397z M23.846,9.847v22.272   c0,1.301-1.064,2.363-2.364,2.363H5.877c-1.3,0-2.364-1.062-2.364-2.363V9.847c0-1.292,1.053-2.349,2.343-2.361V1.375   C5.856,0.616,6.473,0,7.231,0c0.76,0,1.375,0.616,1.375,1.375v6.109h12.875C22.781,7.484,23.846,8.548,23.846,9.847z    M10.093,30.911c0-0.47-0.381-0.851-0.85-0.851H6.695c-0.469,0-0.85,0.381-0.85,0.851c0,0.469,0.38,0.849,0.85,0.849h2.548   C9.712,31.76,10.093,31.38,10.093,30.911z M10.093,27.671c0-0.469-0.381-0.851-0.85-0.851H6.695c-0.469,0-0.85,0.382-0.85,0.851   c0,0.47,0.38,0.851,0.85,0.851h2.548C9.712,28.52,10.093,28.139,10.093,27.671z M10.093,24.432c0-0.471-0.381-0.851-0.85-0.851   H6.695c-0.469,0-0.85,0.38-0.85,0.851c0,0.469,0.38,0.849,0.85,0.849h2.548C9.712,25.28,10.093,24.9,10.093,24.432z M10.093,21.191   c0-0.469-0.381-0.851-0.85-0.851H6.695c-0.469,0-0.85,0.382-0.85,0.851s0.38,0.85,0.85,0.85h2.548   C9.712,22.041,10.093,21.66,10.093,21.191z M15.803,30.911c0-0.47-0.38-0.851-0.85-0.851h-2.547c-0.469,0-0.85,0.381-0.85,0.851   c0,0.469,0.38,0.849,0.85,0.849h2.547C15.423,31.76,15.803,31.38,15.803,30.911z M15.803,27.671c0-0.469-0.38-0.851-0.85-0.851   h-2.547c-0.469,0-0.85,0.382-0.85,0.851c0,0.47,0.38,0.851,0.85,0.851h2.547C15.423,28.52,15.803,28.139,15.803,27.671z    M15.803,24.432c0-0.471-0.38-0.851-0.85-0.851h-2.547c-0.469,0-0.85,0.38-0.85,0.851c0,0.469,0.38,0.849,0.85,0.849h2.547   C15.423,25.28,15.803,24.9,15.803,24.432z M15.803,21.191c0-0.469-0.38-0.851-0.85-0.851h-2.547c-0.469,0-0.85,0.382-0.85,0.851   s0.38,0.85,0.85,0.85h2.547C15.423,22.041,15.803,21.66,15.803,21.191z M21.514,30.911c0-0.47-0.381-0.851-0.85-0.851h-2.549   c-0.469,0-0.85,0.381-0.85,0.851c0,0.469,0.381,0.849,0.85,0.849h2.549C21.133,31.76,21.514,31.38,21.514,30.911z M21.514,27.671   c0-0.469-0.381-0.851-0.85-0.851h-2.549c-0.469,0-0.85,0.382-0.85,0.851c0,0.47,0.381,0.851,0.85,0.851h2.549   C21.133,28.52,21.514,28.139,21.514,27.671z M21.514,24.432c0-0.471-0.381-0.851-0.85-0.851h-2.549c-0.469,0-0.85,0.38-0.85,0.851   c0,0.469,0.381,0.849,0.85,0.849h2.549C21.133,25.28,21.514,24.9,21.514,24.432z M21.514,21.191c0-0.469-0.381-0.851-0.85-0.851   h-2.549c-0.469,0-0.85,0.382-0.85,0.851s0.381,0.85,0.85,0.85h2.549C21.133,22.041,21.514,21.66,21.514,21.191z M21.564,10.77   H5.796v7.609h15.769V10.77z" fill="#FFFFFF"/>
</g>
<g>
</g>
<g>
</g>
<g>
</g>
<g>
</g>
<g>
</g>
<g>
</g>
<g>
</g>
<g>
</g>
<g>
</g>
<g>
</g>
<g>
</g>
<g>
</g>
<g>
</g>
<g>
</g>
<g>
</g>
</svg>
