<svg version="1.0" xmlns="http://www.w3.org/2000/svg"
 width="300.000000pt" height="300.000000pt" viewBox="0 0 300.000000 300.000000"
 preserveAspectRatio="xMidYMid meet">

<g transform="translate(0.000000,300.000000) scale(0.100000,-0.100000)"
fill="#652ded" stroke="none">
<path d="M1410 1837 c-29 -15 -51 -36 -64 -62 -19 -37 -21 -58 -21 -255 0
-248 5 -267 85 -308 37 -20 56 -23 109 -19 67 5 98 21 135 71 19 25 21 43 24
244 3 209 2 219 -20 262 -43 84 -157 115 -248 67z m108 -119 c18 -18 17 -372
-2 -387 -21 -18 -45 -2 -51 33 -4 18 -5 103 -3 189 2 127 6 160 18 167 20 13
24 12 38 -2z"/>
<path d="M115 1828 c-2 -13 -21 -144 -40 -293 -20 -148 -38 -285 -41 -302 l-6
-33 65 0 c70 0 77 5 77 61 0 28 2 29 44 29 l45 0 3 -42 3 -43 68 -3 c37 -2 67
-1 67 2 0 2 -20 143 -45 314 -25 170 -45 315 -45 321 0 7 -31 11 -95 11 -90 0
-95 -1 -100 -22z m119 -409 c-2 -4 -12 -6 -22 -4 -19 3 -21 29 -7 130 l9 60
12 -90 c7 -49 11 -92 8 -96z"/>
<path d="M420 1525 l0 -325 65 0 65 0 0 146 0 145 33 -3 32 -3 3 -142 3 -143
69 0 70 0 0 150 c0 131 -2 152 -18 168 -17 16 -17 18 3 52 27 47 29 173 2 213
-37 56 -70 67 -204 67 l-123 0 0 -325z m188 189 c24 -17 30 -62 10 -82 -7 -7
-25 -12 -40 -12 -27 0 -28 2 -28 48 0 66 14 77 58 46z"/>
<path d="M780 1790 l0 -60 30 0 30 0 0 -265 0 -265 70 0 70 0 0 265 0 265 35
0 35 0 0 60 0 60 -135 0 -135 0 0 -60z"/>
<path d="M1060 1525 l0 -326 73 3 72 3 3 143 3 142 49 0 50 0 0 60 0 60 -49 0
-49 0 -4 56 c-1 31 -1 58 1 60 2 2 26 4 53 4 l48 0 0 60 0 60 -125 0 -125 0 0
-325z"/>
<path d="M1690 1525 l0 -325 70 0 70 0 0 146 0 145 33 -3 32 -3 3 -142 3 -143
64 0 65 0 0 154 c0 129 -3 157 -16 171 -15 15 -15 18 2 36 27 30 33 173 9 218
-30 59 -64 71 -207 71 l-128 0 0 -325z m185 199 c24 -9 36 -49 25 -79 -7 -19
-17 -25 -40 -25 -30 0 -30 0 -30 55 0 57 6 63 45 49z"/>
<path d="M2053 1578 c2 -254 3 -275 22 -308 43 -73 163 -102 251 -60 72 35 74
47 74 364 l0 276 -70 0 -70 0 0 -254 c0 -212 -2 -256 -15 -266 -8 -7 -22 -10
-30 -6 -13 5 -15 43 -15 266 l0 260 -74 0 -74 0 1 -272z"/>
<path d="M2420 1525 l0 -325 65 0 65 0 0 182 c0 100 2 179 5 176 3 -3 19 -74
35 -159 16 -85 32 -164 35 -177 5 -21 10 -23 68 -20 l62 3 37 185 36 185 1
-187 1 -188 70 0 70 0 0 325 0 325 -109 0 -109 0 -10 -47 c-6 -27 -19 -90 -28
-141 -10 -51 -21 -87 -25 -80 -3 7 -19 70 -35 141 l-29 127 -102 0 -103 0 0
-325z"/>
</g>
</svg>
