<?xml version="1.0" standalone="no"?>
<!DOCTYPE svg PUBLIC "-//W3C//DTD SVG 20010904//EN"
 "http://www.w3.org/TR/2001/REC-SVG-20010904/DTD/svg10.dtd">
<svg version="1.0" xmlns="http://www.w3.org/2000/svg"
 width="160.000000pt" height="134.000000pt" viewBox="0 0 160.000000 134.000000"
 preserveAspectRatio="xMidYMid meet">
<metadata>
Created by potrace 1.10, written by Peter Selinger 2001-2011
</metadata>
<g transform="translate(0.000000,134.000000) scale(0.050000,-0.050000)"
fill="#652ded" stroke="none">
<path d="M660 2605 c0 -3 0 -471 -1 -1040 l0 -1035 202 0 203 0 -2 1037 -2
1036 -200 4 c-110 1 -200 1 -200 -2z m167 -1460 c10 -36 25 -65 33 -65 8 0 23
29 33 65 40 138 93 93 117 -100 17 -130 -35 -155 -61 -30 l-15 75 -30 -75
c-16 -41 -36 -75 -44 -75 -8 0 -28 34 -44 75 l-30 75 -15 -75 c-28 -138 -77
-97 -61 50 21 178 78 217 117 80z"/>
<path d="M2130 1160 l0 -1080 205 0 205 0 0 1080 0 1080 -205 0 -205 0 0
-1080z m202 -24 l58 -83 6 83 c12 162 80 114 79 -56 -1 -171 -29 -182 -139
-55 l-73 85 11 -85 c10 -77 7 -85 -31 -85 -40 0 -43 10 -43 140 0 172 41 189
132 56z"/>
<path d="M80 1000 l0 -880 210 0 210 0 0 880 0 880 -210 0 -210 0 0 -880z"/>
<path d="M2700 1100 l0 -640 210 0 210 0 0 640 0 640 -210 0 -210 0 0 -640z
m161 65 l0 -55 45 55 c43 51 114 76 114 38 0 -9 -22 -37 -49 -62 l-50 -47 61
-77 c61 -76 61 -77 15 -77 -25 0 -65 24 -91 55 l-45 55 0 -55 c-1 -39 -11 -55
-36 -55 -30 0 -51 215 -27 275 13 33 62 -6 63 -50z"/>
<path d="M1560 916 l0 -606 205 6 205 6 -5 594 -4 594 -201 6 -200 5 0 -605z
m296 273 c54 -38 60 -158 11 -212 -79 -88 -247 -18 -247 103 0 118 134 180
236 109z"/>
<path d="M1711 1129 c-47 -48 -12 -129 56 -129 72 0 97 106 34 139 -50 27 -52
27 -90 -10z"/>
</g>
</svg>
