<?xml version="1.0" standalone="no"?>
<!DOCTYPE svg PUBLIC "-//W3C//DTD SVG 20010904//EN"
 "http://www.w3.org/TR/2001/REC-SVG-20010904/DTD/svg10.dtd">
<svg version="1.0" xmlns="http://www.w3.org/2000/svg"
 width="2046.000000pt" height="1076.000000pt" viewBox="0 0 2046.000000 1076.000000"
 preserveAspectRatio="xMidYMid meet">
<g transform="translate(0.000000,1076.000000) scale(0.100000,-0.100000)"
fill="#652ded" stroke="none">
<path d="M2286 6849 c-296 -34 -601 -157 -841 -338 -80 -60 -224 -200 -295
-286 -273 -332 -410 -771 -380 -1211 74 -1054 1064 -1789 2099 -1558 566 127
1032 532 1234 1074 83 222 112 409 104 665 -9 276 -62 488 -183 725 -97 189
-75 183 -205 54 l-111 -111 45 -89 c25 -49 59 -128 76 -176 99 -283 101 -619
5 -908 -140 -419 -487 -764 -906 -901 -376 -123 -820 -76 -1150 122 -300 180
-527 458 -633 773 -53 158 -68 257 -69 446 -1 252 34 409 140 627 137 281 357
504 634 643 413 208 872 205 1292 -6 l71 -36 111 111 c128 128 130 109 -25
190 -307 162 -671 230 -1013 190z"/>
<path d="M18125 6281 c-89 -22 -134 -75 -142 -171 -11 -113 32 -190 122 -220
59 -19 203 -9 246 17 55 35 82 93 82 177 0 80 -15 119 -62 159 -48 40 -164 58
-246 38z"/>
<path d="M6040 6183 c-215 -25 -400 -141 -474 -297 -42 -87 -56 -153 -56 -256
0 -155 42 -266 143 -376 79 -86 133 -121 377 -245 233 -117 299 -169 320 -248
23 -87 -15 -167 -103 -214 -38 -20 -56 -22 -182 -22 -163 0 -244 19 -452 103
l-123 49 0 -199 0 -199 54 -25 c151 -69 423 -106 624 -86 387 38 602 237 605
557 1 120 -14 187 -61 278 -64 125 -168 203 -475 358 -261 132 -307 174 -307
280 0 86 54 154 141 179 92 27 264 4 428 -57 53 -19 105 -36 115 -37 16 -1 31
25 81 145 34 80 64 153 68 162 8 20 -14 31 -184 88 -173 58 -371 81 -539 62z"/>
<path d="M16190 5175 l0 -985 215 0 215 0 0 350 0 349 53 39 c28 21 66 48 84
60 l31 22 254 -410 253 -409 243 -1 c133 0 242 2 242 5 0 3 -154 249 -341 547
-294 464 -340 544 -330 559 8 14 464 595 664 847 7 9 -40 12 -230 12 l-239 0
-266 -332 c-146 -183 -299 -380 -339 -438 l-74 -105 -3 438 -2 437 -215 0
-215 0 0 -985z"/>
<path d="M2355 6044 c-163 -34 -259 -70 -363 -137 -179 -116 -311 -289 -376
-495 -150 -476 108 -984 579 -1141 330 -110 679 -32 928 208 143 137 230 299
268 498 25 135 -6 442 -50 486 -8 8 -43 -20 -134 -111 l-123 -122 4 -70 c5
-89 -18 -195 -64 -290 -46 -97 -169 -222 -265 -268 -105 -51 -178 -65 -299
-59 -130 6 -206 31 -309 101 -312 213 -351 648 -82 916 55 55 97 86 151 112
90 44 221 73 300 65 l57 -5 128 128 127 128 -49 16 c-95 32 -188 46 -298 45
-60 -1 -119 -3 -130 -5z"/>
<path d="M19035 6008 c-3 -7 -29 -78 -59 -158 l-53 -145 -112 -68 -111 -69 0
-94 0 -94 94 0 95 0 4 -432 c4 -463 5 -478 58 -583 53 -105 158 -174 299 -196
132 -20 350 2 473 50 l27 11 0 156 0 157 -27 -6 c-16 -4 -59 -13 -98 -21 -157
-35 -260 -11 -296 68 -17 38 -19 72 -19 419 l0 377 210 0 210 0 0 160 0 160
-210 0 -210 0 0 160 0 160 -135 0 c-99 0 -137 -3 -140 -12z"/>
<path d="M9405 5716 c-164 -26 -270 -78 -375 -185 -85 -86 -136 -176 -172
-307 -19 -69 -22 -105 -22 -284 -1 -182 2 -215 22 -295 64 -251 207 -399 447
-461 53 -14 110 -18 235 -18 189 -1 274 14 380 67 l65 32 3 183 c1 101 -1 182
-5 180 -5 -2 -46 -23 -93 -46 -110 -54 -194 -75 -305 -76 -74 0 -99 4 -142 23
-129 57 -185 185 -185 416 1 277 89 415 279 441 62 8 181 -15 295 -57 45 -16
85 -26 88 -22 9 9 120 300 120 312 0 12 -86 47 -171 70 -149 40 -314 50 -464
27z"/>
<path d="M10851 5719 c-311 -40 -506 -223 -578 -541 -20 -90 -23 -372 -4 -468
67 -352 267 -526 631 -547 184 -10 341 17 468 81 l52 26 0 180 c0 99 -2 180
-4 180 -2 0 -42 -20 -89 -44 -110 -56 -207 -80 -322 -80 -79 -1 -98 3 -148 28
-109 53 -164 165 -174 356 -10 186 26 328 104 412 60 63 114 83 223 82 72 -1
104 -8 209 -43 68 -23 125 -41 126 -39 2 2 28 68 58 148 31 80 58 152 62 161
4 12 -10 22 -62 42 -173 67 -366 90 -552 66z"/>
<path d="M12251 5719 c-215 -33 -390 -157 -479 -339 -64 -130 -83 -217 -89
-405 -4 -135 -2 -175 15 -258 46 -221 165 -380 352 -470 52 -25 129 -53 170
-62 213 -47 533 -21 715 60 l55 24 0 160 c0 98 -4 161 -10 161 -5 0 -43 -13
-85 -30 -151 -60 -226 -74 -390 -75 -141 0 -153 2 -205 26 -63 30 -123 86
-152 143 -16 31 -47 147 -48 179 0 4 219 7 486 7 l486 0 -5 183 c-5 206 -16
259 -76 382 -72 146 -212 255 -386 300 -75 19 -270 27 -354 14z m265 -319 c82
-35 143 -127 157 -237 l5 -43 -284 0 c-156 0 -284 2 -284 5 0 24 27 118 42
150 24 48 73 101 111 122 68 35 176 37 253 3z"/>
<path d="M13763 5720 c-156 -22 -254 -62 -335 -138 -94 -87 -132 -214 -109
-361 29 -193 106 -262 466 -424 77 -35 159 -75 183 -90 45 -29 82 -79 82 -112
0 -33 -35 -81 -74 -99 -105 -50 -367 -16 -593 77 l-63 26 0 -178 0 -178 88
-26 c142 -44 197 -51 397 -51 163 0 203 3 277 22 271 67 391 225 376 493 -5
74 -11 101 -37 153 -58 119 -147 181 -423 297 -214 90 -268 128 -268 188 1 61
61 91 183 91 96 0 189 -21 320 -74 79 -31 89 -33 95 -18 3 9 32 78 63 152 l57
135 -26 14 c-48 25 -188 70 -274 86 -100 19 -300 27 -385 15z"/>
<path d="M15175 5724 c-174 -25 -234 -45 -324 -105 -131 -87 -188 -252 -150
-431 16 -74 43 -125 98 -181 62 -65 131 -105 327 -192 245 -109 296 -147 296
-219 0 -48 -16 -73 -65 -98 -37 -20 -56 -23 -162 -22 -155 2 -286 34 -493 121
-10 4 -12 -32 -10 -173 l3 -178 65 -22 c132 -45 224 -58 420 -58 145 -1 202 3
265 18 92 21 182 60 243 105 157 116 202 414 87 587 -61 93 -152 152 -375 244
-221 91 -290 138 -290 196 0 68 50 94 178 94 99 0 159 -13 305 -69 82 -31 104
-35 110 -24 23 39 117 279 113 289 -6 17 -166 73 -271 95 -86 18 -308 32 -370
23z"/>
<path d="M7092 5138 c4 -611 5 -614 63 -730 54 -108 143 -181 269 -221 94 -29
299 -31 391 -3 113 34 219 103 268 175 9 14 19 22 22 19 3 -3 17 -46 32 -97
l26 -91 163 0 164 0 0 755 0 755 -210 0 -210 0 0 -388 c0 -533 -16 -639 -110
-733 -110 -110 -314 -107 -392 6 -53 75 -58 133 -58 648 l0 467 -211 0 -210 0
3 -562z"/>
<path d="M18000 4945 l0 -755 210 0 210 0 0 755 0 755 -210 0 -210 0 0 -755z"/>
</g>
</svg>
